<svg xmlns="http://www.w3.org/2000/svg" x="0px" y="0px"
     width="50" height="50"
     style="fill:#000000;"
	 viewBox="0 0 50 50">
	 
<symbol id="google-icon"  ><g id="surface1"><path style=" " d="M 25.996094 48 C 13.3125 48 2.992188 37.683594 2.992188 25 C 2.992188 12.316406 13.3125 2 25.996094 2 C 31.742188 2 37.242188 4.128906 41.488281 7.996094 L 42.261719 8.703125 L 34.675781 16.289063 L 33.972656 15.6875 C 31.746094 13.78125 28.914063 12.730469 25.996094 12.730469 C 19.230469 12.730469 13.722656 18.234375 13.722656 25 C 13.722656 31.765625 19.230469 37.269531 25.996094 37.269531 C 30.875 37.269531 34.730469 34.777344 36.546875 30.53125 L 24.996094 30.53125 L 24.996094 20.175781 L 47.546875 20.207031 L 47.714844 21 C 48.890625 26.582031 47.949219 34.792969 43.183594 40.667969 C 39.238281 45.53125 33.457031 48 25.996094 48 Z "></path></g></symbol>
	 
<symbol id="ms-icon" viewBox="0 0 26 26"><g id="surface2"><path style=" " d="M 12.136719 12.839844 L 9.648438 21.390625 C 7.484375 19.9375 5.132813 18.738281 0.144531 20.804688 L 2.574219 12.34375 L 2.605469 12.328125 C 7.574219 10.285156 9.980469 11.378906 12.136719 12.839844 Z M 13.4375 13.664063 L 10.980469 22.121094 C 13.140625 23.589844 15.53125 24.757813 20.515625 22.695313 L 22.886719 14.449219 C 17.808594 16.1875 15.597656 15.117188 13.4375 13.664063 Z M 12.550781 11.300781 L 15.003906 2.828125 C 12.84375 1.367188 10.449219 0.195313 5.464844 2.261719 L 3.007813 10.769531 C 4.988281 9.953125 6.550781 9.578125 7.859375 9.589844 C 9.851563 9.601563 11.246094 10.425781 12.550781 11.300781 Z M 16.300781 3.71875 L 13.84375 12.238281 C 15.996094 13.699219 18.601563 14.894531 23.375 12.761719 L 25.828125 4.273438 C 20.847656 6.328125 18.453125 5.175781 16.300781 3.71875 Z "></path></g></symbol>
</svg>